# xmcd CD database file
# Copyright (C) 1995 Ti Kan
#
# Track frame offsets:
#	150
#	15260
#	28069
#	45167
#	55803
#	73242
#	86848
#	101236
#	116431
#	130312
#	149501
#	171690
#	184626
#	195282
#	210553
#	221576
#	236043
#	255752
#	271558
#	283336
#
# Disc length: 3982 seconds
#
# Revision: 1
# Processed by: cddbd v1.4b41PL1 Copyright (c) Steve Scherf et al.
# Submitted via: NotifyCDPlayer(CDDB) 1.60b6.1
#
DISCID=230f8c14
DTITLE=Doc and Merle Watson - 1985-06-22 - Telluride BGF Telluride CO.
DYEAR=1900
DGENRE=
TTITLE0=New River Train
TTITLE1=Shady Grove
TTITLE2=Pickin the Blues
TTITLE3=Sheeps in the Meadow > Sunny Fork
TTITLE4=Deep River Blues
TTITLE5=Smoke Smoke
TTITLE6=Mississippi Heavy Water Blues
TTITLE7=Arrangement Blues
TTITLE8=Way Down Town
TTITLE9=Pallet on Your Floor
TTITLE10=Milk Cow Blues
TTITLE11=Black Mountain Rag
TTITLE12=Gimme Back my 15 cents
TTITLE13=Nine Pound Hammer
TTITLE14=Natural Born Gamblin Man
TTITLE15=Freight Train Blues
TTITLE16=?
TTITLE17=Leaving London
TTITLE18=Red Headed Boy
TTITLE19=Gone and Left Me Blues
EXTD=This is one of Merle's last performances because he died in October of\
EXTD=n85. The band is Doc, Merle, T.Michael Coleman, and Sam Bush. Bela Flec
EXTD=k \nis on the last 8 songs or so. \n\nSource: KOTO Pre-fm (probably cas
EXTD=s. master) -> DAT -> HHB CDR 850\n
EXTT0=
EXTT1=
EXTT2=
EXTT3=
EXTT4=
EXTT5=
EXTT6=
EXTT7=
EXTT8=
EXTT9=
EXTT10=
EXTT11=
EXTT12=
EXTT13=
EXTT14=
EXTT15=
EXTT16=
EXTT17=
EXTT18=
EXTT19=
PLAYORDER=
